<svg width="40" height="41" viewBox="0 0 40 41" fill="none" xmlns="http://www.w3.org/2000/svg">
<path d="M20 10.5C25.523 10.5 30 14.977 30 20.5C30 26.023 25.523 30.5 20 30.5C18.404 30.5022 16.8308 30.1208 15.413 29.388L11.587 30.455C11.3735 30.5146 11.1481 30.5163 10.9337 30.4601C10.7194 30.4038 10.5238 30.2916 10.3671 30.1349C10.2104 29.9782 10.0982 29.7826 10.0419 29.5683C9.98569 29.3539 9.98744 29.1285 10.047 28.915L11.115 25.092C10.3804 23.6729 9.99793 22.0979 10 20.5C10 14.977 14.477 10.5 20 10.5ZM20 12C17.7457 12 15.5837 12.8955 13.9896 14.4896C12.3955 16.0837 11.5 18.2457 11.5 20.5C11.5 21.97 11.873 23.383 12.573 24.637L12.723 24.907L11.611 28.891L15.598 27.779L15.868 27.929C17.0024 28.5597 18.2661 28.9222 19.5624 28.9888C20.8586 29.0554 22.1528 28.8242 23.3458 28.3131C24.5389 27.8019 25.599 27.0244 26.445 26.04C27.2909 25.0556 27.9002 23.8906 28.2261 22.6343C28.552 21.3779 28.5858 20.0636 28.325 18.7922C28.0643 17.5207 27.5158 16.3259 26.7216 15.2993C25.9275 14.2726 24.9088 13.4415 23.7437 12.8696C22.5786 12.2977 21.2979 12.0002 20 12ZM16.75 21.5H21.248C21.438 21.5001 21.6209 21.5722 21.7598 21.702C21.8987 21.8317 21.9831 22.0093 21.996 22.1989C22.009 22.3885 21.9495 22.5759 21.8296 22.7233C21.7097 22.8707 21.5383 22.9671 21.35 22.993L21.248 23H16.75C16.56 22.9999 16.3771 22.9278 16.2382 22.798C16.0994 22.6683 16.0149 22.4907 16.002 22.3011C15.989 22.1115 16.0485 21.9241 16.1684 21.7767C16.2884 21.6293 16.4598 21.5329 16.648 21.507L16.75 21.5ZM16.75 18H23.255C23.4449 18.0003 23.6277 18.0727 23.7664 18.2025C23.905 18.3323 23.9893 18.5099 24.0021 18.6994C24.0149 18.8889 23.9553 19.0762 23.8354 19.2235C23.7155 19.3708 23.5442 19.4671 23.356 19.493L23.255 19.5H16.75C16.56 19.4999 16.3771 19.4278 16.2382 19.298C16.0994 19.1683 16.0149 18.9907 16.002 18.8011C15.989 18.6115 16.0485 18.4241 16.1684 18.2767C16.2884 18.1293 16.4598 18.0329 16.648 18.007L16.75 18Z" fill="#EC5656"/>
<rect x="0.5" y="1" width="39" height="39" rx="19.5" stroke="#E5E5E5"/>
</svg>
