<svg width="24" height="24" viewBox="0 0 24 24" fill="none" xmlns="http://www.w3.org/2000/svg">
<mask id="mask0_547_1175" style="mask-type:luminance" maskUnits="userSpaceOnUse" x="2" y="13" width="16" height="9">
<path fill-rule="evenodd" clip-rule="evenodd" d="M2 13.957H17.1838V21.0566H2V13.957Z" fill="white"/>
</mask>
<g mask="url(#mask0_547_1175)">
<path fill-rule="evenodd" clip-rule="evenodd" d="M9.592 15.457C6.813 15.457 3.5 15.814 3.5 17.519C3.5 18.871 5.55 19.557 9.592 19.557C13.634 19.557 15.684 18.864 15.684 17.499C15.684 16.144 13.634 15.457 9.592 15.457ZM9.592 21.057C7.516 21.057 2 21.057 2 17.519C2 13.957 7.714 13.957 9.592 13.957C12.851 13.957 17.184 14.324 17.184 17.499C17.184 21.057 11.47 21.057 9.592 21.057Z" fill="#D3D3D3"/>
</g>
<path fill-rule="evenodd" clip-rule="evenodd" d="M9.59108 3.5C7.58608 3.5 5.95508 5.131 5.95508 7.135C5.95508 9.139 7.58608 10.77 9.59108 10.77H9.62208C10.5861 10.766 11.4941 10.387 12.1751 9.7C12.8571 9.015 13.2301 8.104 13.2261 7.138C13.2261 5.131 11.5951 3.5 9.59108 3.5ZM9.59108 12.27C6.75908 12.27 4.45508 9.966 4.45508 7.135C4.45508 4.304 6.75908 2 9.59108 2C12.4221 2 14.7261 4.304 14.7261 7.135C14.7321 8.499 14.2031 9.787 13.2391 10.757C12.2771 11.728 10.9921 12.265 9.62508 12.27H9.59108Z" fill="#D3D3D3"/>
<path fill-rule="evenodd" clip-rule="evenodd" d="M16.4817 11.1318C16.1137 11.1318 15.7927 10.8608 15.7397 10.4858C15.6827 10.0758 15.9677 9.69577 16.3777 9.63877C17.6257 9.46377 18.5677 8.38077 18.5697 7.11877C18.5697 5.86477 17.6717 4.80677 16.4367 4.60477C16.0277 4.53677 15.7507 4.15177 15.8177 3.74277C15.8847 3.33377 16.2717 3.05877 16.6787 3.12377C18.6437 3.44577 20.0697 5.12677 20.0697 7.11977C20.0657 9.12477 18.5687 10.8468 16.5867 11.1248C16.5517 11.1298 16.5167 11.1318 16.4817 11.1318Z" fill="#D3D3D3"/>
<mask id="mask1_547_1175" style="mask-type:luminance" maskUnits="userSpaceOnUse" x="17" y="13" width="5" height="6">
<path fill-rule="evenodd" clip-rule="evenodd" d="M17.8457 13.4834H21.9795V18.4609H17.8457V13.4834Z" fill="white"/>
</mask>
<g mask="url(#mask1_547_1175)">
<path fill-rule="evenodd" clip-rule="evenodd" d="M19.896 18.4609C19.593 18.4609 19.308 18.2759 19.195 17.9769C19.048 17.5899 19.243 17.1559 19.63 17.0099C20.48 16.6879 20.48 16.2949 20.48 16.1269C20.48 15.5599 19.809 15.1719 18.486 14.9749C18.076 14.9129 17.793 14.5309 17.854 14.1219C17.916 13.7119 18.305 13.4369 18.707 13.4899C21.413 13.8949 21.98 15.1479 21.98 16.1269C21.98 16.8559 21.665 17.8429 20.162 18.4119C20.075 18.4449 19.985 18.4609 19.896 18.4609Z" fill="#D3D3D3"/>
</g>
</svg>
