<svg width="116" height="116" viewBox="0 0 116 116" fill="none" xmlns="http://www.w3.org/2000/svg">
<mask id="mask0_547_1357" style="mask-type:alpha" maskUnits="userSpaceOnUse" x="0" y="0" width="116" height="116">
<circle cx="58" cy="58" r="58" fill="#D9D9D9"/>
</mask>
<g mask="url(#mask0_547_1357)">
<circle cx="58" cy="62" r="16" fill="#CCFFEF"/>
<g clip-path="url(#clip0_547_1357)">
<path d="M51.5681 57.71C51.6214 57.6562 51.6811 57.6068 51.7468 57.5631L51.8141 57.549C51.8493 57.5337 51.8774 57.5085 51.8958 57.4781C52.0009 57.4285 52.111 57.3965 52.223 57.3805C52.3197 57.3671 52.3876 57.2773 52.3736 57.1799C52.3606 57.0826 52.2701 57.0147 52.1734 57.028C52.0626 57.0444 51.9516 57.0725 51.8451 57.1143C51.8278 57.0365 51.8181 56.9572 51.8181 56.8772C51.8184 56.7021 51.8595 56.5254 51.9471 56.3591C52.047 56.169 52.1936 56.0207 52.3651 55.9195C52.5154 55.8307 52.6852 55.7778 52.8596 55.7654C52.8723 55.9244 52.9102 56.0828 52.9762 56.2363C53.0154 56.3264 53.1196 56.3679 53.2101 56.3291C53.3002 56.2905 53.342 56.186 53.3031 56.0959C53.2398 55.9479 53.2101 55.7957 53.2094 55.6448L53.2117 55.5805C53.2238 55.3714 53.293 55.1696 53.4109 54.9975C53.5288 54.8257 53.6941 54.6849 53.8998 54.5957C54.0475 54.5327 54.2003 54.503 54.3509 54.503C54.6393 54.503 54.9186 54.6141 55.1296 54.81C55.0901 54.9442 55.0675 55.0857 55.0675 55.2327C55.0675 55.3307 55.1478 55.4103 55.2458 55.4103C55.3438 55.4103 55.4238 55.3307 55.4238 55.2327C55.4238 55.0886 55.4503 54.9521 55.4986 54.825H55.4983C55.5803 54.6111 55.7253 54.4269 55.9111 54.2969C56.0963 54.1669 56.3207 54.0908 56.565 54.0908C56.777 54.0908 56.9746 54.1487 57.1444 54.2486C57.2803 54.3289 57.3976 54.4374 57.4896 54.5647C57.3097 54.8113 57.2032 55.1161 57.2032 55.4447C57.2032 55.5426 57.2832 55.622 57.3816 55.622C57.4796 55.622 57.5596 55.5426 57.5596 55.4447C57.5596 55.1559 57.6657 54.8933 57.8424 54.6924C58.0521 54.453 58.3581 54.3032 58.7011 54.3032C58.9391 54.3032 59.1583 54.3753 59.3416 54.4994C59.5241 54.6236 59.6695 54.7993 59.7554 55.0057C59.8109 55.1406 59.8426 55.2892 59.8426 55.4447C59.8426 55.5426 59.922 55.622 60.0203 55.622C60.1186 55.622 60.1979 55.5426 60.1979 55.4447C60.1979 55.3003 60.177 55.1612 60.1391 55.0285C60.2731 54.9743 60.4181 54.9443 60.567 54.9443C60.6516 54.9443 60.7365 54.9541 60.8227 54.9734C61.0762 55.0318 61.2881 55.1684 61.4433 55.3532C61.555 55.4865 61.6347 55.6449 61.6762 55.815C61.3087 55.8215 60.9416 55.9636 60.6581 56.2412C60.5882 56.3102 60.5869 56.4225 60.6555 56.4924C60.7244 56.5629 60.8368 56.5636 60.907 56.4953C61.1297 56.2782 61.4168 56.1694 61.7056 56.169C61.7571 56.169 61.8088 56.1726 61.8604 56.1792H61.861H61.8613C62.1033 56.2128 62.3366 56.3232 62.5218 56.512C62.7393 56.7341 62.8471 57.0209 62.8474 57.3102C62.8474 57.4752 62.8115 57.6414 62.7396 57.7943C62.6838 57.9148 62.6054 58.0272 62.5041 58.1258V58.1261C62.3898 58.2384 62.2578 58.3214 62.1171 58.3756C62.026 58.4112 61.9799 58.5141 62.0158 58.6055C62.0514 58.6977 62.154 58.7434 62.2457 58.7074C62.4296 58.6362 62.6033 58.5272 62.7536 58.3799C62.8193 58.3152 62.8778 58.2463 62.9296 58.1732C63.0639 58.3655 63.1367 58.5957 63.1367 58.8303C63.1367 59.0119 63.0933 59.1951 63.0015 59.3672C62.8983 59.5599 62.749 59.7102 62.5733 59.8127C62.4345 59.8941 62.2793 59.9454 62.1193 59.9633L62.1196 59.9525C62.1196 59.8584 62.1108 59.7664 62.0948 59.6769C62.0765 59.5802 61.9834 59.5171 61.8874 59.5344C61.7907 59.5524 61.727 59.6452 61.7443 59.7418C61.7571 59.8101 61.7639 59.8809 61.7639 59.9525L61.761 60.0352L61.7516 60.1184V60.1194L61.7512 60.121C61.6696 60.6789 61.1875 61.0959 60.6231 61.0959L60.5411 61.0927H60.5408C60.2906 61.0747 60.0659 60.978 59.8876 60.8275C59.7625 60.722 59.6599 60.5897 59.5897 60.4407C59.5482 60.3516 59.4414 60.3137 59.3529 60.3558C59.2641 60.3977 59.2261 60.5034 59.268 60.5923C59.3441 60.7527 59.4479 60.8974 59.5727 61.0205C59.5028 61.2354 59.3715 61.4199 59.2 61.5571C59.004 61.7142 58.7568 61.807 58.4896 61.807L58.4073 61.8037H58.407C58.2378 61.7917 58.0813 61.743 57.9425 61.6672C57.9641 61.565 57.9765 61.4605 57.9765 61.3547C57.9765 61.1364 57.9278 60.914 57.8272 60.705C57.7844 60.6165 57.6783 60.5796 57.5901 60.6224C57.5016 60.6645 57.464 60.771 57.5068 60.8595C57.5842 61.0199 57.6205 61.1884 57.6205 61.3547C57.6205 61.4709 57.6025 61.5869 57.5679 61.6969H57.5676C57.4764 61.9873 57.2706 62.2411 56.9744 62.3834C56.8144 62.4609 56.6458 62.4971 56.4799 62.4971C56.2163 62.4971 55.9586 62.405 55.7542 62.2381L55.7535 62.2378C55.6294 62.1355 55.5255 62.0062 55.4508 61.8517L55.4504 61.851C55.3808 61.7067 55.3443 61.5555 55.3381 61.4046C55.3335 61.3066 55.2509 61.2302 55.1523 61.2347C55.0543 61.239 54.9785 61.3219 54.9828 61.4199C54.9913 61.6178 55.0393 61.8177 55.1304 62.0062V62.0058C55.2036 62.1584 55.2999 62.2926 55.4129 62.4072C55.2032 62.7084 54.8544 62.8982 54.4771 62.8978C54.4073 62.8978 54.3361 62.8913 54.2645 62.8776C53.9898 62.826 53.7583 62.6806 53.5936 62.4807C53.4293 62.2805 53.3336 62.0261 53.3336 61.7576L53.334 61.7334V61.7321C53.3353 61.6717 53.3415 61.6084 53.3532 61.5446C53.3816 61.3934 53.4395 61.2562 53.5188 61.135C53.6338 61.0338 53.7615 60.9015 53.882 60.7545C54.0103 60.5978 54.1286 60.4263 54.2079 60.2535C54.2602 60.1379 54.2974 60.021 54.2981 59.8979C54.2981 59.8433 54.2906 59.7868 54.27 59.7326C54.2501 59.6774 54.2174 59.6252 54.1737 59.582C54.1044 59.5131 53.9921 59.5131 53.9225 59.582C53.8533 59.6519 53.8533 59.7649 53.9225 59.8339L53.9359 59.8551L53.9428 59.8979C53.9434 59.9427 53.9248 60.0184 53.8846 60.1056C53.8448 60.1925 53.7857 60.2902 53.7161 60.3865C53.5783 60.5795 53.3996 60.769 53.265 60.8846L53.2468 60.9003L53.2333 60.9202C53.1233 61.0842 53.0426 61.2729 53.0038 61.479V61.4794L52.991 61.5675L52.9378 61.5698C52.7124 61.5695 52.4854 61.5029 52.2858 61.3627C52.1271 61.251 52.0063 61.1077 51.9246 60.9466C51.8426 60.7853 51.7998 60.6069 51.7998 60.4273C51.7998 60.2591 51.8378 60.0902 51.9135 59.9332C51.9838 59.9557 52.055 59.9737 52.1271 59.9861C52.2238 60.0034 52.3156 59.9377 52.3329 59.8411C52.3493 59.7441 52.2839 59.6526 52.1872 59.6356C51.8724 59.5814 51.584 59.3979 51.4056 59.1032C51.2926 58.9181 51.2394 58.7142 51.2394 58.5127C51.2394 58.2158 51.3541 57.9255 51.5676 57.7102L51.5681 57.71ZM59.7161 56.3533C59.5463 56.1524 59.3209 56.0097 59.0786 55.9162C58.8353 55.8228 58.5746 55.7781 58.3244 55.7781C58.0811 55.7784 57.8473 55.8196 57.6487 55.9117C57.5598 55.9522 57.521 56.0583 57.5621 56.1475C57.603 56.2364 57.7085 56.2755 57.7983 56.2344C57.9354 56.1701 58.1233 56.1332 58.3244 56.1332C58.5315 56.1332 58.7523 56.1713 58.9506 56.2484C59.1488 56.3245 59.3229 56.4382 59.4454 56.5826C59.5081 56.6577 59.6208 56.6675 59.6959 56.6035C59.7707 56.5401 59.7801 56.4281 59.7161 56.3533ZM55.6688 60.5581C55.8755 60.5581 56.063 60.5346 56.2341 60.4951C56.2296 60.544 56.2263 60.5986 56.2263 60.6564C56.2263 60.7724 56.2391 60.9049 56.2753 61.0441C56.3119 61.1829 56.3736 61.3289 56.4709 61.469C56.5268 61.55 56.6375 61.5699 56.7182 61.514C56.7992 61.4582 56.8188 61.3478 56.7636 61.2664C56.6918 61.1629 56.647 61.0571 56.6196 60.9529C56.5921 60.8487 56.582 60.7474 56.582 60.6564C56.5816 60.5306 56.6009 60.4271 56.6146 60.3679C56.7015 60.3287 56.7816 60.2847 56.8563 60.2353C57.1542 60.0426 57.3534 59.7882 57.4785 59.5462C57.5624 59.3838 57.6134 59.2271 57.6408 59.0909C57.6565 59.0131 57.6643 58.9426 57.6643 58.8785C57.6643 58.7799 57.5846 58.7002 57.4863 58.7002C57.3881 58.7002 57.3083 58.7799 57.3083 58.8785C57.3087 58.9301 57.2976 59.0167 57.2695 59.115C57.2414 59.2137 57.1966 59.3257 57.132 59.4384C57.0023 59.665 56.7962 59.892 56.4781 60.0394C56.2655 60.138 56.0009 60.202 55.6688 60.202C55.5705 60.202 55.4908 60.2817 55.4908 60.38C55.4908 60.4784 55.5704 60.5581 55.6688 60.5581ZM54.4165 59.2594C54.4531 59.3503 54.5566 59.3947 54.6481 59.3584C54.7392 59.3218 54.783 59.2189 54.7471 59.1278V59.1275L54.7461 59.1249L54.7408 59.1092L54.7225 59.0452C54.7091 58.989 54.6954 58.9097 54.6954 58.8224L54.6957 58.81C54.94 58.893 55.1667 58.9302 55.3754 58.9302C55.6909 58.9309 55.9639 58.8443 56.1861 58.713C56.4085 58.5818 56.5816 58.408 56.7109 58.2313C56.8579 58.0311 57.0506 57.8514 57.2714 57.7244C57.4928 57.597 57.7404 57.5212 58.0033 57.5206C58.2336 57.5212 58.4785 57.5787 58.7343 57.7192C58.9769 57.8524 59.1331 58.0297 59.234 58.2244C59.3342 58.4194 59.3767 58.6323 59.3764 58.8264C59.3771 59.006 59.3391 59.1686 59.2898 59.2712C59.2477 59.36 59.2859 59.4659 59.3744 59.508C59.4629 59.5502 59.5691 59.5119 59.6112 59.4234C59.6886 59.2594 59.7317 59.053 59.7324 58.8264C59.7321 58.601 59.6873 58.3547 59.5772 58.1192C59.798 58.1692 60.0031 58.1914 60.1899 58.1914C60.2908 58.1914 60.3859 58.1849 60.4764 58.1732L60.5094 58.2398L60.5097 58.2404L60.5123 58.2431L60.5218 58.2552L60.5597 58.3067C60.5921 58.3532 60.6368 58.4207 60.6855 58.5069C60.7825 58.6778 60.8935 58.9188 60.9474 59.1895C60.9667 59.2859 61.0601 59.3489 61.1565 59.3293C61.2528 59.3101 61.3156 59.2167 61.2956 59.1197C61.2316 58.7986 61.1051 58.5255 60.9951 58.3312C60.9376 58.2306 60.885 58.1509 60.8465 58.0967C60.9915 58.0533 61.1169 58 61.2195 57.9458C61.4536 57.8213 61.5755 57.6966 61.5859 57.6864C61.6539 57.6156 61.6519 57.5032 61.5814 57.4349C61.5105 57.367 61.3985 57.369 61.3302 57.4389L61.3282 57.4408L61.3178 57.4509L61.2668 57.4937C61.2205 57.5303 61.1489 57.5806 61.0533 57.6315C60.8612 57.7328 60.5744 57.8354 60.19 57.836C59.9199 57.836 59.6015 57.7844 59.2314 57.642C59.1377 57.5548 59.0296 57.4752 58.9055 57.4072C58.6011 57.2403 58.2944 57.1652 58.0034 57.1652C57.6709 57.1652 57.3616 57.2619 57.0938 57.416C56.8259 57.5709 56.5989 57.7828 56.4242 58.0212C56.3181 58.1652 56.1786 58.3047 56.0058 58.4063C55.8321 58.5082 55.6266 58.5745 55.3755 58.5748C55.2033 58.5748 55.0093 58.5428 54.7898 58.4657C54.8434 58.3798 54.9231 58.2969 55.0544 58.2217C55.14 58.1731 55.1703 58.0647 55.122 57.9794C55.0733 57.8935 54.9652 57.8641 54.8797 57.9118C54.6693 58.0304 54.5286 58.1874 54.4469 58.3517C54.3643 58.5154 54.3398 58.6813 54.3398 58.8224C54.3408 59.0687 54.4116 59.2467 54.4165 59.2594ZM54.4831 57.0807C54.8986 57.0807 55.2621 56.9686 55.5561 56.7991C55.5975 56.8566 55.6531 56.9288 55.7246 57.0072C55.8856 57.1839 56.1221 57.3913 56.4386 57.5049C56.5316 57.5376 56.6329 57.4899 56.6659 57.3972C56.6989 57.3044 56.6502 57.2028 56.5584 57.1702C56.3249 57.0869 56.1296 56.9232 55.9943 56.7753C55.9316 56.7077 55.883 56.6437 55.8477 56.5947C56.0231 56.4464 56.1616 56.2775 56.2566 56.1038C56.3467 55.9372 56.399 55.7654 56.3996 55.5985C56.3996 55.5005 56.3199 55.4208 56.2216 55.4208C56.1236 55.4208 56.044 55.5005 56.044 55.5985C56.0446 55.6883 56.0133 55.8082 55.9441 55.9339C55.8758 56.06 55.7719 56.1913 55.6361 56.3089C55.3643 56.5444 54.9721 56.7247 54.4831 56.7247C54.3848 56.7247 54.3054 56.8047 54.3054 56.903C54.3055 57.0009 54.3848 57.0807 54.4831 57.0807ZM53.0813 59.5848C53.1437 59.6599 53.2561 59.671 53.3318 59.6079C53.4076 59.5456 53.4181 59.4332 53.356 59.3578C53.162 59.1223 53.0905 58.8852 53.0898 58.6582C53.0892 58.4514 53.1526 58.2519 53.2518 58.0837C53.3498 57.9158 53.4853 57.7812 53.6157 57.7064C53.7032 57.6562 53.7855 57.6336 53.8508 57.6336C53.9492 57.6336 54.0285 57.5543 54.0285 57.4559C54.0285 57.3577 53.9491 57.2779 53.8508 57.2779C53.7428 57.2779 53.6369 57.3044 53.5363 57.3488C53.4361 57.3926 53.3413 57.455 53.2531 57.5311C53.0771 57.6833 52.9275 57.8904 52.8334 58.1331C52.7714 58.295 52.7335 58.4727 52.7335 58.6582C52.7332 58.9632 52.8373 59.2898 53.0813 59.5848Z" fill="black"/>
<path d="M61.4805 68.4941L61.4687 68.5049C61.469 68.5046 61.469 68.5046 61.4693 68.5043L61.4805 68.4941Z" fill="black"/>
<path d="M50.803 54.1072C52.1261 52.56 54.1161 51.5064 56.666 51.3525C56.8734 51.3398 57.0798 51.3333 57.2843 51.3333C59.4288 51.3333 61.4016 52.0296 62.8478 53.308C64.295 54.583 65.1961 56.45 65.1929 58.686C65.1929 58.7366 65.1926 58.7872 65.1916 58.8382L65.1938 59.1079L67.0346 62.3587C67.1336 62.534 67.1836 62.7297 67.1836 62.9254C67.1836 63.0886 67.1489 63.2526 67.0788 63.4055C66.9301 63.7298 66.6378 63.963 66.2916 64.0433L66.2923 64.0463L65.4457 64.2795L65.1113 67.5054L65.1086 67.5051C65.0851 67.9751 64.8754 68.4163 64.5194 68.726C64.2029 69.0016 63.7989 69.1512 63.3834 69.1512C63.3413 69.1512 63.2998 69.1473 63.258 69.1444L62.2988 69.2205L62.2507 69.2153L62.2354 69.2146C62.1985 69.2146 62.1642 69.2277 62.1377 69.2515L62.1361 69.2532C62.1057 69.2806 62.0878 69.3208 62.0878 69.3619V72.6666H53.1311V72.1649C53.1311 72.1649 53.1311 70.8059 53.1311 70.2638C53.1321 70.0455 53.0886 69.6141 53.0031 69.198C52.9606 68.9893 52.9081 68.7813 52.8486 68.6013C52.7898 68.4217 52.7218 68.2688 52.665 68.1797C52.0693 67.2194 51.2269 66.4317 50.4555 65.3176C49.685 64.2045 49.0282 62.7605 48.8483 60.5696C48.8254 60.295 48.8139 60.0203 48.8139 59.7469C48.8139 57.6699 49.4776 55.653 50.803 54.1072ZM49.8483 60.4859C50.0224 62.5224 50.592 63.7409 51.2818 64.7485C51.9706 65.7552 52.8224 66.5465 53.5158 67.6476C53.6367 67.8423 53.7252 68.0578 53.8013 68.2871C53.9143 68.6304 53.995 69.0047 54.0502 69.3532C54.1051 69.7026 54.1341 70.0195 54.1344 70.2638C54.1344 70.6119 54.1344 71.1384 54.1344 71.6633H61.0844V69.362C61.0844 69.035 61.2236 68.7238 61.4673 68.5053C61.6799 68.3142 61.9542 68.211 62.2354 68.211C62.256 68.211 62.2759 68.2133 62.2962 68.2146L63.2544 68.1382L63.3015 68.1434L63.3834 68.148C63.5578 68.148 63.7277 68.0849 63.8606 67.9693C64.0141 67.8357 64.105 67.6437 64.1108 67.4395L64.1111 67.4206L64.5181 63.4948L66.0434 63.0741L66.0617 63.0705C66.1081 63.0613 66.1469 63.0306 66.1668 62.9875L66.1803 62.9255L66.1613 62.853L64.1925 59.3762L64.1883 58.833V58.8258C64.1892 58.7788 64.1896 58.7324 64.1896 58.686C64.1863 56.7173 63.4211 55.1586 62.1832 54.0596C60.944 52.9631 59.2136 52.3367 57.2843 52.3367C57.1004 52.3367 56.9149 52.3425 56.7281 52.354L56.6971 51.8533L56.7278 52.354C54.4176 52.4993 52.7173 53.421 51.5647 54.7605C50.414 56.1009 49.8173 57.8812 49.8173 59.7469C49.8173 59.9921 49.8274 60.2387 49.8483 60.4859Z" fill="black"/>
</g>
<circle cx="23" cy="51" r="16" fill="#FFF5D3"/>
<g clip-path="url(#clip1_547_1357)">
<path d="M23.1145 52.5298C23.0831 52.8999 23.3344 54.8592 23.464 55.6274C23.5257 55.9914 23.695 56.5844 23.6341 56.8992C23.5471 57.338 23.522 57.9059 23.5699 58.2365C23.6001 58.4373 23.6951 59.3634 23.5591 59.7022C23.488 59.8798 23.3576 60.7901 23.3576 60.7901C23.018 61.6477 23.2097 61.6055 23.2097 61.6055C23.3148 61.7345 23.4949 61.6156 23.4949 61.6156C23.6321 61.7031 23.7272 61.5948 23.7272 61.5948C23.8449 61.6923 23.9822 61.5828 23.9822 61.5828C24.1302 61.6597 24.2674 61.518 24.2674 61.518C24.3524 61.5608 24.3732 61.5067 24.3732 61.5067C24.6282 61.4904 24.2309 60.6744 24.2309 60.6744C24.1358 59.9415 24.3253 59.5336 24.3253 59.5336C24.9461 57.6927 24.9776 57.2041 24.7295 56.5103C24.6596 56.31 24.6419 56.2307 24.6741 56.1438C24.7484 55.9431 24.6942 55.1359 24.7849 54.8153C24.9598 54.1971 25.1324 52.6293 25.2224 51.8978C25.3432 50.9124 24.7942 49.5912 24.7942 49.5912C24.674 49.0536 24.8502 47.138 24.8502 47.138C25.0964 47.521 25.087 48.1973 25.087 48.1973C25.0479 48.9065 25.6599 49.9904 25.6599 49.9904C25.954 50.4383 26.0654 50.8632 26.0654 50.8948C26.0654 51.0238 26.0371 51.3362 26.0371 51.3362L26.0484 51.6082C26.0535 51.6775 26.0924 51.916 26.0861 52.0313C26.0402 52.7408 26.1529 52.6073 26.1529 52.6073C26.2481 52.6073 26.3526 52.0364 26.3526 52.0364C26.3526 52.1836 26.3166 52.6244 26.396 52.7906C26.491 52.989 26.5609 52.7566 26.5622 52.71C26.5873 51.8066 26.6416 52.0433 26.6416 52.0433C26.6944 52.7762 26.7594 52.9417 26.8758 52.8844C26.964 52.8423 26.8833 52.0049 26.8833 52.0049C27.0344 52.5024 27.149 52.5816 27.149 52.5816C27.3982 52.7566 27.2441 52.2731 27.2094 52.1774C27.025 51.6687 27.0193 51.4924 27.0193 51.4924C27.2498 51.9495 27.4235 51.9326 27.4235 51.9326C27.6483 51.8608 27.227 51.2135 26.9802 50.9035C26.8543 50.7455 26.6918 50.5339 26.6447 50.4083C26.5679 50.1955 26.5099 49.5114 26.5099 49.5114C26.4866 48.7042 26.287 48.3536 26.287 48.3536C25.9458 47.8075 25.8816 46.7887 25.8816 46.7887L25.8665 45.0687C25.7469 43.8955 24.8824 43.887 24.8824 43.887C24.0086 43.7569 23.887 43.4746 23.887 43.4746C23.7019 43.2083 23.8077 42.6977 23.8077 42.6977C23.9612 42.5728 24.0205 42.2412 24.0205 42.2412C24.2755 42.0457 24.263 41.7596 24.1452 41.7627C24.0507 41.7652 24.0721 41.6869 24.0721 41.6869C24.2315 40.399 23.0882 40.3333 23.0882 40.3333H22.9136C22.9136 40.3333 21.7698 40.399 21.929 41.6866C21.929 41.6866 21.9504 41.765 21.8551 41.7624C21.7376 41.7593 21.7266 42.0454 21.9807 42.2409C21.9807 42.2409 22.0398 42.5724 22.1935 42.6974C22.1935 42.6974 22.2993 43.208 22.1142 43.4743C22.1142 43.4743 21.993 43.7566 21.1188 43.8867C21.1188 43.8867 20.2528 43.8951 20.1351 45.0684L20.1187 46.7884C20.1187 46.7884 20.0558 47.8071 19.7132 48.3533C19.7132 48.3533 19.5146 48.704 19.4916 49.5111C19.4916 49.5111 19.4334 50.1952 19.3569 50.408C19.3103 50.533 19.1479 50.7445 19.021 50.9031C18.772 51.2126 18.3535 51.8585 18.5774 51.9322C18.5774 51.9322 18.752 51.9492 18.9816 51.4921C18.9816 51.4921 18.9768 51.6671 18.7927 52.1771C18.7565 52.2716 18.6025 52.7551 18.8519 52.5813C18.8519 52.5813 18.9674 52.502 19.1175 52.0046C19.1175 52.0046 19.037 52.842 19.1266 52.8841C19.2438 52.9415 19.3077 52.7759 19.3605 52.043C19.3605 52.043 19.4147 51.8063 19.4398 52.7097C19.4411 52.7563 19.5094 52.9886 19.6049 52.7903C19.6854 52.6241 19.6492 52.184 19.6492 52.0361C19.6492 52.0361 19.7525 52.607 19.8491 52.607C19.8491 52.607 19.9627 52.7405 19.9161 52.031C19.9085 51.9151 19.9492 51.6772 19.9542 51.6079L19.9652 51.3359C19.9652 51.3359 19.9369 51.0242 19.9369 50.8945C19.9369 50.8623 20.0483 50.438 20.3423 49.99C20.3423 49.99 20.9537 48.9056 20.9143 48.1969C20.9143 48.1969 20.9058 47.5207 21.152 47.1377C21.152 47.1377 21.3267 49.0532 21.2083 49.5909C21.2083 49.5909 20.6584 50.9121 20.7796 51.8975C20.869 52.631 21.0412 54.1967 21.2166 54.815C21.3082 55.1349 21.254 55.9419 21.3274 56.1435C21.3605 56.231 21.3431 56.3117 21.272 56.51C21.0252 57.2038 21.0566 57.6924 21.6774 59.5333C21.6774 59.5333 21.8685 59.9412 21.7719 60.6741C21.7719 60.6741 21.3753 61.4901 21.6293 61.5064C21.6293 61.5064 21.6492 61.5605 21.7351 61.5177C21.7351 61.5177 21.8723 61.6593 22.0206 61.5825C22.0206 61.5825 22.1579 61.6921 22.2753 61.5945C22.2753 61.5945 22.3694 61.7028 22.5066 61.6153C22.5066 61.6153 22.6867 61.7368 22.7937 61.6052C22.7937 61.6052 22.9838 61.6474 22.6453 60.7898C22.6453 60.7898 22.5157 59.8806 22.4442 59.7019C22.3079 59.3632 22.4042 58.4351 22.4333 58.2362C22.4801 57.9037 22.455 57.3372 22.3694 56.8989C22.3067 56.5848 22.4764 55.9917 22.539 55.6271C22.6678 54.8596 22.92 52.9002 22.8885 52.5295L22.9927 52.5661C23.0674 52.5663 23.1145 52.5298 23.1145 52.5298Z" fill="black"/>
</g>
<circle cx="92" cy="47" r="16" fill="#D5E8FF"/>
<circle cx="92" cy="47" r="16" fill="#D5E8FF"/>
<g clip-path="url(#clip2_547_1357)">
<path d="M92.0007 36.3337C86.1097 36.3337 81.334 41.1094 81.334 47.0004C81.334 52.8913 86.1097 57.6669 92.0007 57.6669C97.8916 57.6669 102.667 52.8913 102.667 47.0004C102.667 41.1094 97.8917 36.3337 92.0007 36.3337ZM100.534 47.0004C100.534 48.9142 99.893 50.6767 98.8248 52.1017L93.0673 46.343V38.5411C97.27 39.0688 100.534 42.6573 100.534 47.0004ZM90.9341 55.4597C89.3265 55.258 87.8562 54.6111 86.6541 53.641L90.9341 49.3611V55.4597ZM93.0673 49.3604L97.3478 53.6409C96.1451 54.6111 94.6749 55.258 93.0673 55.4597V49.3604ZM90.9341 38.5411V46.3438L85.1762 52.1018C84.1083 50.6767 83.4673 48.9142 83.4673 47.0004C83.4673 42.6573 86.7313 39.0688 90.9341 38.5411Z" fill="#107DFD"/>
</g>
<g clip-path="url(#clip3_547_1357)">
<path d="M92.0007 36.3337C86.1097 36.3337 81.334 41.1094 81.334 47.0004C81.334 52.8913 86.1097 57.6669 92.0007 57.6669C97.8916 57.6669 102.667 52.8913 102.667 47.0004C102.667 41.1094 97.8917 36.3337 92.0007 36.3337ZM100.534 47.0004C100.534 48.9142 99.893 50.6767 98.8248 52.1017L93.0673 46.343V38.5411C97.27 39.0688 100.534 42.6573 100.534 47.0004ZM90.9341 55.4597C89.3265 55.258 87.8562 54.6111 86.6541 53.641L90.9341 49.3611V55.4597ZM93.0673 49.3604L97.3478 53.6409C96.1451 54.6111 94.6749 55.258 93.0673 55.4597V49.3604ZM90.9341 38.5411V46.3438L85.1762 52.1018C84.1083 50.6767 83.4673 48.9142 83.4673 47.0004C83.4673 42.6573 86.7313 39.0688 90.9341 38.5411Z" fill="black"/>
</g>
<circle cx="58" cy="26" r="16" fill="#D5E8FF"/>
<circle cx="58" cy="26" r="16" fill="#FFE7F1"/>
<g clip-path="url(#clip4_547_1357)">
<path d="M66.6403 16.4016C65.8819 16.6089 65.2436 16.789 65.2272 16.7999C65.1943 16.838 65.3799 17.5911 65.4345 17.6238C65.4563 17.6346 65.7018 17.5856 65.9747 17.5092C66.2529 17.4328 66.504 17.3782 66.5313 17.3891C66.5586 17.4 66.2857 17.842 65.9256 18.3713L65.2654 19.3424L65.0636 19.2114C64.4415 18.8184 63.6122 18.4967 62.7992 18.322C62.2482 18.2074 60.9987 18.1966 60.4148 18.3002C58.0302 18.7258 56.0278 20.4555 55.2858 22.7252C54.1509 26.1955 56.0116 29.9111 59.4653 31.0678C61.4623 31.739 63.7539 31.3844 65.4399 30.1402C68.6426 27.7831 69.0682 23.1563 66.351 20.2917L65.9692 19.8934L66.6785 18.8513C67.4751 17.6782 67.3987 17.7055 67.5079 18.5784C67.5461 18.8349 67.5788 19.0695 67.5898 19.1022C67.6007 19.1403 67.7317 19.1403 68.0372 19.0966C68.4408 19.042 68.4628 19.0311 68.4519 18.9057C68.4355 18.7365 68.0483 16.0413 68.0372 16.0357C68.0314 16.0304 67.404 16.1942 66.6403 16.4016ZM63.0064 19.2824C63.5357 19.4298 64.3105 19.7899 64.7852 20.1063C65.2325 20.4118 65.9474 21.1267 66.2529 21.574C66.5693 22.0487 66.9296 22.8291 67.0712 23.3528C67.2513 24.0131 67.2841 25.2515 67.1367 25.9499C66.9185 27.0138 66.4383 27.9196 65.6745 28.7218C63.4429 31.0678 59.7981 31.1224 57.5173 28.8417C55.6022 26.921 55.2967 23.9147 56.7916 21.6502C57.3044 20.8754 58.3248 20.0024 59.1651 19.6206C60.0327 19.2276 60.5782 19.1241 61.6967 19.1459C62.3843 19.1623 62.6627 19.1896 63.0064 19.2824Z" fill="black"/>
<path d="M57.9533 21.0121L57.6478 21.3176L57.9424 21.7323C58.3025 22.2399 58.559 22.7636 58.7554 23.4074C58.8918 23.8495 58.9082 23.9802 58.9082 24.7715C58.9137 25.519 58.8973 25.7099 58.7881 26.1082C58.6189 26.7194 58.2643 27.4667 57.9151 27.9196L57.6367 28.2851L57.7459 28.4214C57.8059 28.4924 57.9478 28.6343 58.0679 28.7269L58.2861 28.9016L58.3953 28.7706C58.4553 28.7051 58.6462 28.4378 58.8154 28.1923C59.8411 26.6699 60.1084 24.6785 59.5301 22.8888C59.3118 22.2068 58.8589 21.3884 58.4389 20.9082L58.2588 20.7009L57.9533 21.0121Z" fill="black"/>
<path d="M52.4484 18.7968C48.4981 19.6424 46.4029 23.942 48.1926 27.5322C49.1093 29.3709 50.9424 30.6859 52.9013 30.8986L53.2396 30.9367L53.256 32.0934L53.2669 33.2557H52.3667C51.4773 33.2557 51.4608 33.2557 51.3301 33.392C51.1609 33.5556 51.1554 33.7903 51.3083 33.9812C51.4175 34.1231 51.4175 34.1286 52.3287 34.1395L53.2398 34.1559L53.2671 34.9525C53.2836 35.4982 53.3162 35.7764 53.3653 35.8364C53.469 35.9565 53.7309 36.0055 53.8781 35.9236C54.1181 35.7982 54.1346 35.7218 54.1401 34.9032V34.1284H55.0075C55.4877 34.1284 55.9187 34.112 55.9679 34.0958C56.0989 34.0412 56.2188 33.7683 56.1806 33.6102C56.1642 33.5339 56.0825 33.4248 56.0115 33.3647C55.886 33.2666 55.7877 33.2555 55.002 33.2555H54.1399L54.1508 32.0988L54.1672 30.9421L54.6092 30.8766C54.8548 30.8439 55.2313 30.762 55.4549 30.6965C55.8696 30.5711 56.8136 30.1564 56.8136 30.0964C56.8136 30.0747 56.6717 29.9164 56.4917 29.7416L56.1753 29.4251L55.908 29.5614C55.5696 29.7306 55.0242 29.9053 54.6094 29.9761C54.1292 30.0634 53.1091 30.0471 52.6233 29.9488C50.621 29.5452 48.9676 27.8865 48.5529 25.8784C48.4548 25.3928 48.4383 24.378 48.5256 23.8923C48.733 22.6974 49.464 21.4696 50.4136 20.7168C51.914 19.5219 53.9056 19.2382 55.7006 19.9637L56.1862 20.1547L56.4972 19.8492C56.6717 19.6747 56.7918 19.5217 56.7701 19.4999C56.6881 19.4127 56.0117 19.1072 55.6516 18.9815C54.74 18.6711 53.3868 18.5948 52.4484 18.7968Z" fill="black"/>
</g>
<circle cx="83" cy="89" r="16" fill="#DBFFF4"/>
<g clip-path="url(#clip5_547_1357)">
<path d="M92.373 89.9873C91.9033 89.4754 91.0283 89.5843 90.4431 90.0171C89.9084 90.4627 86.2526 92.8653 86.2526 92.8653H81.8093L81.7953 92.8723C81.5613 92.8645 81.3784 92.668 81.3853 92.4344C81.3938 92.2003 81.5907 92.017 81.8232 92.0252L81.8093 92.017C82.6036 92.017 85.083 92.017 85.083 92.017C85.7402 92.017 86.2734 91.4846 86.2734 90.8278C86.2734 90.1698 85.7402 89.637 85.083 89.637C84.4878 89.637 83.298 89.637 80.3227 89.637C77.3466 89.637 76.4042 90.8774 75.3625 91.9183L73.473 93.5691C73.3498 93.676 73.2793 93.8299 73.2793 93.9934V99.4795C73.2793 99.5519 73.3227 99.619 73.3893 99.6496C73.456 99.6798 73.5343 99.6693 73.5901 99.6209L77.242 96.4898C77.3707 96.3805 77.5427 96.334 77.7086 96.3638L83.4004 97.3985C83.7972 97.4706 84.2057 97.3795 84.5366 97.1467C84.5366 97.1467 91.8002 92.0954 92.3373 91.6486C92.848 91.1797 92.8426 90.4992 92.373 89.9873Z" fill="black"/>
<path d="M81.3611 87.4305C82.2578 88.0447 83.3862 88.495 83.3862 88.495C83.4901 88.5287 83.6505 88.5581 83.7063 88.5581C83.7614 88.5581 83.9218 88.5287 84.0257 88.495C84.0257 88.495 85.1533 88.0447 86.0508 87.4305C87.4164 86.4996 89.6314 84.6725 89.6314 82.0967C89.6314 79.4841 88.1534 78.3002 86.5275 78.334C85.2874 78.3564 84.555 79.0892 84.0636 79.8115C83.9737 79.9456 83.8396 80.0312 83.7063 80.0347C83.5722 80.0312 83.4382 79.9456 83.349 79.8115C82.8577 79.0892 82.1245 78.3564 80.8845 78.334C79.2577 78.3002 77.7812 79.4841 77.7812 82.0967C77.7812 84.6725 79.9955 86.4997 81.3611 87.4305ZM80.142 79.97C80.2667 79.817 80.4225 79.6872 80.6007 79.579C80.7767 79.4728 81.0053 79.529 81.1115 79.705C81.2185 79.8809 81.1619 80.1099 80.9859 80.2157C80.8689 80.287 80.7829 80.3614 80.7193 80.44C80.5899 80.5997 80.355 80.6233 80.1954 80.4935C80.0365 80.3637 80.0125 80.1297 80.142 79.97ZM79.27 82.3412C79.27 82.0925 79.2956 81.8615 79.3506 81.6492C79.4025 81.45 79.6064 81.331 79.8048 81.3833C80.004 81.4349 80.1225 81.6383 80.0714 81.8371C80.035 81.975 80.0141 82.1432 80.0141 82.3412C80.0141 82.5373 80.0342 82.7629 80.0768 83.0155C80.145 83.4201 80.3171 83.796 80.569 84.149C80.6883 84.316 80.6496 84.5485 80.4822 84.6679C80.314 84.7872 80.0822 84.7485 79.9629 84.5811C79.6583 84.156 79.4328 83.6731 79.3429 83.1395C79.2948 82.8536 79.27 82.5885 79.27 82.3412Z" fill="black"/>
</g>
<circle cx="33" cy="92" r="16" fill="#F0F7FF"/>
<path fill-rule="evenodd" clip-rule="evenodd" d="M39.3401 93.7777C38.2758 95.5154 36.6997 97.3895 34.6118 99.4L33.9889 99.9898C33.8827 100.089 33.7752 100.188 33.6666 100.288L33.0002 100.889C32.6598 100.586 32.3302 100.287 32.0115 99.9898L31.3886 99.4C29.3007 97.3895 27.7246 95.5154 26.6603 93.7777L28.7873 93.7778C29.7304 95.1137 31.0092 96.5671 32.6314 98.1286L33.0002 98.4791L33.062 98.4215C34.8307 96.7485 36.2113 95.1968 37.2132 93.7777L39.3401 93.7777ZM30.3335 86.4568L33.0002 91.7893L34.3335 89.1235L35.3273 91.1111H41.8891V92.8889H34.4384L33.0002 95.7654L30.3335 90.432L29.1051 92.8889H24.1113V91.1111H28.0056L30.3335 86.4568ZM36.2002 84C38.8512 84 41.0002 86.1491 41.0002 88.8C41.0002 89.2604 40.9489 89.7344 40.8463 90.2222L39.0194 90.2222C39.1374 89.7867 39.2037 89.3711 39.219 88.9759L39.2224 88.8C39.2224 87.1309 37.8693 85.7778 36.2002 85.7778C35.5135 85.7778 34.8665 86.0057 34.3414 86.4176L34.1876 86.5466L33.0016 87.6097L31.815 86.5473C31.2639 86.0538 30.5559 85.7778 29.8002 85.7778C28.1311 85.7778 26.778 87.1309 26.778 88.8C26.778 89.2472 26.8454 89.7215 26.981 90.2222L25.1542 90.2222C25.0515 89.7344 25.0002 89.2604 25.0002 88.8C25.0002 86.149 27.1493 84 29.8002 84C31.0299 84 32.1516 84.4624 33.0009 85.2229C33.8495 84.4621 34.9709 84 36.2002 84Z" fill="black"/>
</g>
<defs>
<clipPath id="clip0_547_1357">
<rect width="21.3333" height="21.3333" fill="white" transform="matrix(-1 0 0 1 68.666 51.3333)"/>
</clipPath>
<clipPath id="clip1_547_1357">
<rect width="21.3333" height="21.3333" fill="white" transform="translate(12.334 40.3333)"/>
</clipPath>
<clipPath id="clip2_547_1357">
<rect width="21.3333" height="21.3333" fill="white" transform="translate(81.334 36.3333)"/>
</clipPath>
<clipPath id="clip3_547_1357">
<rect width="21.3333" height="21.3333" fill="white" transform="translate(81.334 36.3333)"/>
</clipPath>
<clipPath id="clip4_547_1357">
<rect width="21.3333" height="21.3333" fill="white" transform="translate(47.334 15.3333)"/>
</clipPath>
<clipPath id="clip5_547_1357">
<rect width="21.3333" height="21.3333" fill="white" transform="translate(72.334 78.3333)"/>
</clipPath>
</defs>
</svg>
