<svg width="40" height="41" viewBox="0 0 40 41" fill="none" xmlns="http://www.w3.org/2000/svg">
<path fill-rule="evenodd" clip-rule="evenodd" d="M19.3807 26.7723C24.4432 26.7723 26.7852 26.1228 27.0114 23.5161C27.0114 20.9111 25.3785 21.0787 25.3785 17.8825C25.3785 15.3859 23.0122 12.5454 19.3807 12.5454C15.7492 12.5454 13.3828 15.3859 13.3828 17.8825C13.3828 21.0787 11.75 20.9111 11.75 23.5161C11.9771 26.1327 14.3191 26.7723 19.3807 26.7723Z" stroke="#EC5656" stroke-width="1.5" stroke-linecap="round" stroke-linejoin="round"/>
<path d="M21.5256 29.4741C20.301 30.8339 18.3906 30.85 17.1543 29.4741" stroke="#EC5656" stroke-width="1.5" stroke-linecap="round" stroke-linejoin="round"/>
<path d="M28.25 14.5007C28.25 16.9851 26.2363 19 23.75 19C21.2652 19 19.25 16.9851 19.25 14.5007C19.25 12.0149 21.2652 10 23.75 10C26.2363 10 28.25 12.0149 28.25 14.5007Z" fill="#EC5656"/>
<path d="M28.25 14.5007C28.25 16.9851 26.2363 19 23.75 19C21.2652 19 19.25 16.9851 19.25 14.5007C19.25 12.0149 21.2652 10 23.75 10C26.2363 10 28.25 12.0149 28.25 14.5007" stroke="#F8F9FA" stroke-width="0.75"/>
<rect x="0.5" y="1" width="39" height="39" rx="19.5" stroke="#E5E5E5"/>
</svg>
